<svg width="41" height="40" viewBox="0 0 41 40" fill="none" xmlns="http://www.w3.org/2000/svg">
<path fill-rule="evenodd" clip-rule="evenodd" d="M20.0303 1.12382e-07C7.50654 0.000469818 1.94921 16.3505 12.55 23.5386V25.2808C11.17 26.4544 11.0121 28.6966 12.2343 30.0506C10.3334 32.2057 11.9008 35.6868 14.8007 35.6753H14.8455C15.9822 41.4437 24.0808 41.4395 25.2151 35.6753H25.2598C28.1611 35.6863 29.7264 32.2049 27.8262 30.0506C29.0488 28.6962 28.8902 26.454 27.5105 25.2808V23.5387C38.1153 16.3468 32.5478 -0.00156509 20.0303 1.12382e-07ZM25.2598 26.7738C26.6549 26.8317 26.6539 28.8192 25.2598 28.8766H14.8007C13.4056 28.8186 13.4067 26.8312 14.8007 26.7738H25.2598ZM20.0303 37.6756C18.7417 37.6756 17.6464 36.8359 17.2605 35.6753H22.8001C22.4143 36.8358 21.3188 37.6756 20.0303 37.6756ZM25.2598 33.3273C23.5148 33.3271 16.5061 33.3271 14.8007 33.3273C13.4087 33.2709 13.4037 31.2833 14.8007 31.2246H25.2598C26.6517 31.2809 26.657 33.2686 25.2598 33.3273ZM25.7147 21.9092C25.3712 22.1236 25.1625 22.5 25.1625 22.905V24.4258H23.3492V19.2112L25.875 16.7232C26.3369 16.2682 26.3426 15.5248 25.8875 15.063C25.4325 14.601 24.6891 14.5954 24.2274 15.0505L21.3514 17.8834C21.1274 18.104 21.0012 18.4052 21.0012 18.7197V24.4258H19.0511V18.7197C19.0511 18.4084 18.9274 18.1098 18.7072 17.8896L15.8743 15.0567C15.4159 14.5983 14.6725 14.5983 14.2141 15.0567C13.7556 15.5152 13.7556 16.2585 14.2141 16.717L16.7031 19.2061V24.4259H14.898V22.905C14.898 22.5001 14.6893 22.1237 14.3459 21.9093C5.06152 16.2845 9.53276 2.35861 20.0304 2.34797C30.5283 2.35908 34.999 16.2857 25.7147 21.9092Z" fill="#00CDB3"/>
<path d="M35.6789 8.65175C35.8438 8.65175 36.0116 8.61684 36.1711 8.54296L38.3911 7.51596C38.9796 7.24375 39.2359 6.54601 38.9637 5.95754C38.6915 5.36913 37.9938 5.11258 37.4054 5.38494L35.1853 6.41195C34.0452 6.95863 34.4346 8.64095 35.6789 8.65175Z" fill="#00CDB3"/>
<path d="M36.4412 11.2655H38.8916C40.448 11.3269 40.4492 13.5515 38.8916 13.6135H36.4412C34.8848 13.552 34.8836 11.3276 36.4412 11.2655Z" fill="#00CDB3"/>
<path d="M38.356 17.363L36.136 16.336C34.6964 15.7382 33.7634 17.7577 35.1502 18.467L37.3702 19.494C37.9451 19.7638 38.6557 19.5158 38.9286 18.9214C39.2009 18.3329 38.9445 17.6352 38.356 17.363Z" fill="#00CDB3"/>
<path d="M1.66573 17.3629L3.88581 16.3359C4.47429 16.0637 5.17203 16.3201 5.44424 16.9085C5.71645 17.497 5.46013 18.1947 4.87165 18.467L2.65157 19.494C2.07663 19.7638 1.36605 19.5159 1.09314 18.9214C0.820934 18.3329 1.07725 17.6351 1.66573 17.3629Z" fill="#00CDB3"/>
<path d="M3.61813 13.6135C5.17577 13.5514 5.1746 11.3269 3.61813 11.2655H1.16779C-0.389851 11.3276 -0.388677 13.552 1.16779 13.6135H3.61813Z" fill="#00CDB3"/>
<path d="M2.68285 5.38515L4.90293 6.41216C5.49133 6.68436 5.74773 7.38202 5.47544 7.97058C5.20261 8.56493 4.49188 8.81303 3.9171 8.54317L1.69702 7.51617C1.10854 7.24396 0.852139 6.54622 1.12443 5.95775C1.39663 5.36935 2.09437 5.11287 2.68285 5.38515Z" fill="#00CDB3"/>
</svg>
