<svg width="16" height="16" viewBox="0 0 16 16" fill="none" xmlns="http://www.w3.org/2000/svg">
<path fill-rule="evenodd" clip-rule="evenodd" d="M7.62293 7.20648C7.39303 7.20648 7.20667 7.39285 7.20667 7.62274V13.7105C7.20667 13.9404 7.39303 14.1268 7.62293 14.1268H13.7107C13.9406 14.1268 14.127 13.9404 14.127 13.7105V7.62274C14.127 7.39285 13.9406 7.20648 13.7107 7.20648H7.62293ZM5.3335 7.62274C5.3335 6.35833 6.35851 5.33331 7.62293 5.33331H13.7107C14.9752 5.33331 16.0002 6.35833 16.0002 7.62274V13.7105C16.0002 14.975 14.9752 16 13.7107 16H7.62293C6.35851 16 5.3335 14.975 5.3335 13.7105V7.62274Z" fill="#2C2C34"/>
<path fill-rule="evenodd" clip-rule="evenodd" d="M2.28943 1.87317C2.17903 1.87317 2.07315 1.91703 1.99509 1.99509C1.91703 2.07315 1.87317 2.17903 1.87317 2.28943V8.37724C1.87317 8.48764 1.91703 8.59351 1.99509 8.67158C2.07315 8.74964 2.17903 8.7935 2.28943 8.7935H2.96585C3.48312 8.7935 3.90244 9.21282 3.90244 9.73008C3.90244 10.2473 3.48312 10.6667 2.96585 10.6667H2.28943C1.68224 10.6667 1.09991 10.4255 0.670559 9.99611C0.241207 9.56676 0 8.98443 0 8.37724V2.28943C0 1.68224 0.241207 1.09991 0.670559 0.670559C1.09991 0.241207 1.68224 0 2.28943 0H8.37724C8.98443 0 9.56676 0.241207 9.99611 0.670559C10.4255 1.09991 10.6667 1.68224 10.6667 2.28943V2.96585C10.6667 3.48312 10.2473 3.90244 9.73008 3.90244C9.21282 3.90244 8.7935 3.48312 8.7935 2.96585V2.28943C8.7935 2.17903 8.74964 2.07315 8.67158 1.99509C8.59351 1.91703 8.48763 1.87317 8.37724 1.87317H2.28943Z" fill="#2C2C34"/>
</svg>
