<svg width="40" height="40" viewBox="0 0 40 40" fill="none" xmlns="http://www.w3.org/2000/svg">
<path d="M33.1703 28.2812C33.6541 29.6452 34.9566 30.625 36.4844 30.625C38.4229 30.625 40 29.0479 40 27.1094C40 25.1709 38.4229 23.5938 36.4844 23.5938C34.9566 23.5938 33.6541 24.5736 33.1703 25.9375H25.7812V23.5938H31.7969C32.0984 23.5938 32.3883 23.4775 32.6063 23.2692L35.0443 20.9402C35.4841 21.1386 35.9713 21.25 36.4844 21.25C38.4229 21.25 40 19.6729 40 17.7344C40 15.7959 38.4229 14.2188 36.4844 14.2188C34.5459 14.2188 32.9688 15.7959 32.9688 17.7344C32.9688 18.3045 33.106 18.8428 33.3479 19.3195L31.327 21.25H25.7812V20.0781C25.7812 18.5504 24.8015 17.2478 23.4375 16.7641V10.5469C23.4375 4.73133 18.7062 0 12.8906 0C7.07508 0 2.34375 4.73133 2.34375 10.5469V16.7641C0.979766 17.2478 0 18.5504 0 20.0781V34.1406C0 36.0791 1.57711 37.6562 3.51562 37.6562H22.2656C24.2041 37.6562 25.7812 36.0791 25.7812 34.1406V32.9688H31.252L33.1873 35.2644C33.0462 35.6446 32.9688 36.0555 32.9688 36.4844C32.9688 38.4229 34.5459 40 36.4844 40C38.4229 40 40 38.4229 40 36.4844C40 34.5459 38.4229 32.9688 36.4844 32.9688C35.8414 32.9688 35.2388 33.143 34.7197 33.4456L32.6929 31.0415C32.4702 30.7774 32.1423 30.625 31.7969 30.625H25.7812V28.2812H33.1703ZM36.4844 25.9375C37.1305 25.9375 37.6562 26.4632 37.6562 27.1094C37.6562 27.7555 37.1305 28.2812 36.4844 28.2812C35.8382 28.2812 35.3125 27.7555 35.3125 27.1094C35.3125 26.4632 35.8382 25.9375 36.4844 25.9375ZM36.4844 16.5625C37.1305 16.5625 37.6562 17.0882 37.6562 17.7344C37.6562 18.3805 37.1305 18.9062 36.4844 18.9062C35.8382 18.9062 35.3125 18.3805 35.3125 17.7344C35.3125 17.0882 35.8382 16.5625 36.4844 16.5625ZM4.6875 10.5469C4.6875 6.02367 8.36742 2.34375 12.8906 2.34375C17.4138 2.34375 21.0938 6.02367 21.0938 10.5469V16.5625H18.75V10.5469C18.75 7.31602 16.1215 4.6875 12.8906 4.6875C9.65977 4.6875 7.03125 7.31602 7.03125 10.5469V16.5625H4.6875V10.5469ZM16.4062 10.5469V16.5625H9.375V10.5469C9.375 8.60836 10.9521 7.03125 12.8906 7.03125C14.8291 7.03125 16.4062 8.60836 16.4062 10.5469ZM23.4375 34.1406C23.4375 34.7868 22.9118 35.3125 22.2656 35.3125H3.51562C2.86945 35.3125 2.34375 34.7868 2.34375 34.1406V20.0781C2.34375 19.432 2.86945 18.9062 3.51562 18.9062H22.2656C22.9118 18.9062 23.4375 19.432 23.4375 20.0781V34.1406ZM36.4844 35.3125C37.1305 35.3125 37.6562 35.8382 37.6562 36.4844C37.6562 37.1305 37.1305 37.6562 36.4844 37.6562C35.8382 37.6562 35.3125 37.1305 35.3125 36.4844C35.3125 35.8382 35.8382 35.3125 36.4844 35.3125Z" fill="#00CDB3"/>
</svg>
