<svg width="41" height="40" viewBox="0 0 41 40" fill="none" xmlns="http://www.w3.org/2000/svg">
<path fill-rule="evenodd" clip-rule="evenodd" d="M4.39573 8.66508C4.39573 11.0739 6.35538 13.0335 8.76416 13.0335C11.1729 13.0335 13.1326 11.0739 13.1325 8.66508C12.8934 2.87141 4.63566 2.86977 4.39573 8.66508ZM6.74347 8.66508C6.74347 7.55085 7.64993 6.64439 8.76416 6.64439C9.8784 6.64439 10.7849 7.55085 10.7848 8.66508C10.6742 11.345 6.85443 11.3458 6.74347 8.66508Z" fill="#00CDB3"/>
<path d="M32.7107 21.1481C32.7107 20.4998 32.1851 19.9742 31.5368 19.9742C30.8884 19.9742 30.3629 20.4998 30.3629 21.1481C30.4245 22.7048 32.6488 22.7052 32.7107 21.1481Z" fill="#00CDB3"/>
<path d="M18.0457 16.8893H24.0898C25.6473 16.9513 25.6462 19.1756 24.0898 19.237H18.0457C16.4883 19.175 16.4894 16.9507 18.0457 16.8893Z" fill="#00CDB3"/>
<path fill-rule="evenodd" clip-rule="evenodd" d="M4.48435 19.8774C4.27845 18.2304 2.86957 16.9519 1.16762 16.9519C-0.389324 17.0135 -0.389089 19.238 1.16762 19.2997C1.71613 19.2997 2.16243 19.7459 2.16243 20.2945C2.16243 21.3591 3.02852 22.2252 4.09314 22.2252H5.01736C4.03468 26.8648 5.77608 31.8136 9.41116 34.854C9.6133 35.0249 9.72927 35.2818 9.72927 35.559V38.8261C9.72927 39.4744 10.2549 40 10.9031 40H15.511C16.1593 40 16.6848 39.4744 16.6848 38.8261V37.9003C17.0851 37.9369 17.4875 37.9553 17.8894 37.9553H26.1105V38.8261C26.1105 39.4744 26.6361 40 27.2843 40H31.9704C32.6187 40 33.1443 39.4744 33.1443 38.8261V35.064C34.4287 34.044 35.9024 32.4575 36.7135 30.1699C38.6468 29.7583 40.1013 28.0375 40.1013 25.9833V22.8542C40.1013 20.7104 38.5172 18.9297 36.458 18.6212C35.6922 17.2219 34.9107 16.1164 34.1245 15.3195L35.9857 10.446C36.1222 10.0886 36.0759 9.68708 35.8618 9.37006C35.6476 9.05296 35.2924 8.86021 34.9099 8.85348L31.406 8.7915C29.0937 8.75261 26.9068 9.84063 25.5401 11.673H17.8894C17.5562 11.673 17.2169 11.6886 16.8755 11.7159C19.0526 6.19592 14.7188 -0.0881984 8.76647 0.000937441C-1.80204 0.308961 -3.04282 15.0519 7.22001 17.1909C6.62423 18.0336 6.12792 18.936 5.74023 19.8774H4.48435ZM2.44995 8.66511C2.44995 5.18224 5.28352 2.34868 8.76639 2.34868C12.2493 2.34868 15.0828 5.18224 15.0828 8.66504C14.7372 17.0423 2.79687 17.0447 2.44995 8.66511ZM12.0771 35.559C12.0771 34.5893 11.6578 33.6788 10.9267 33.0609C6.11587 29.095 5.85003 21.6498 10.2506 17.2017C12.259 16.8536 14.0327 15.812 15.3146 14.3329C16.1647 14.131 17.0663 14.0209 17.8895 14.0209H26.1632C26.5738 14.0209 26.9546 13.8064 27.1673 13.4553C28.051 11.9963 29.6608 11.1091 31.3645 11.139L33.1956 11.1714L31.6453 15.2306C31.4626 15.7091 31.6112 16.2509 32.0125 16.5692C32.597 17.0328 33.535 18.0537 34.6832 20.285C34.8843 20.676 35.2872 20.9217 35.7269 20.9217H35.821C36.8866 20.9217 37.7535 21.7886 37.7535 22.8542V25.9833C37.7535 27.0488 36.8866 27.9158 35.8211 27.9158C35.2901 27.9158 34.8251 28.2723 34.6874 28.7852C34.0541 31.1428 32.4886 32.6643 31.2867 33.5256C30.9791 33.746 30.7966 34.1012 30.7966 34.4797V37.6523H28.4582V34.1304C28.3968 32.5741 26.1725 32.5729 26.1105 34.1304V35.6075H17.8894C17.4874 35.6075 17.0851 35.5844 16.686 35.5401V34.1304C16.6246 32.5741 14.4003 32.5729 14.3383 34.1304V36.5249C14.3382 36.5298 14.3377 36.5346 14.3374 36.5394L14.3372 36.5447V37.6523H12.0771V35.559Z" fill="#00CDB3"/>
</svg>
