<svg width="77" height="17" viewBox="0 0 77 17" fill="none" xmlns="http://www.w3.org/2000/svg">
<path d="M8.16675 0.133911L10.5179 4.89784L15.7752 5.66178L11.971 9.36998L12.869 14.606L8.16675 12.1339L3.46447 14.606L4.36252 9.36998L0.558296 5.66178L5.81561 4.89784L8.16675 0.133911Z" fill="black"/>
<path d="M23.1667 0.133911L25.5179 4.89784L30.7752 5.66178L26.971 9.36998L27.869 14.606L23.1667 12.1339L18.4645 14.606L19.3625 9.36998L15.5583 5.66178L20.8156 4.89784L23.1667 0.133911Z" fill="black"/>
<path d="M38.1667 0.133911L40.5179 4.89784L45.7752 5.66178L41.971 9.36998L42.869 14.606L38.1667 12.1339L33.4645 14.606L34.3625 9.36998L30.5583 5.66178L35.8156 4.89784L38.1667 0.133911Z" fill="black"/>
<path d="M53.1667 0.133911L55.5179 4.89784L60.7752 5.66178L56.971 9.36998L57.869 14.606L53.1667 12.1339L48.4645 14.606L49.3625 9.36998L45.5583 5.66178L50.8156 4.89784L53.1667 0.133911Z" fill="black"/>
<path d="M68.1667 0.133911L70.5179 4.89784L75.7752 5.66178L71.971 9.36998L72.869 14.606L68.1667 12.1339L63.4645 14.606L64.3625 9.36998L60.5583 5.66178L65.8156 4.89784L68.1667 0.133911Z" fill="black"/>
</svg>
