<svg width="91" height="15" viewBox="0 0 91 15" fill="none" xmlns="http://www.w3.org/2000/svg">
<path d="M7.5 0L9.7042 4.46619L14.6329 5.18237L11.0665 8.65881L11.9084 13.5676L7.5 11.25L3.09161 13.5676L3.93354 8.65881L0.367076 5.18237L5.2958 4.46619L7.5 0Z" fill="black"/>
<path d="M26.5 0L28.7042 4.46619L33.6329 5.18237L30.0665 8.65881L30.9084 13.5676L26.5 11.25L22.0916 13.5676L22.9335 8.65881L19.3671 5.18237L24.2958 4.46619L26.5 0Z" fill="black"/>
<path d="M45.5 0L47.7042 4.46619L52.6329 5.18237L49.0665 8.65881L49.9084 13.5676L45.5 11.25L41.0916 13.5676L41.9335 8.65881L38.3671 5.18237L43.2958 4.46619L45.5 0Z" fill="black"/>
<path d="M64.5 0L66.7042 4.46619L71.6329 5.18237L68.0665 8.65881L68.9084 13.5676L64.5 11.25L60.0916 13.5676L60.9335 8.65881L57.3671 5.18237L62.2958 4.46619L64.5 0Z" fill="black"/>
<path d="M83.5 0L85.7042 4.46619L90.6329 5.18237L87.0665 8.65881L87.9084 13.5676L83.5 11.25L79.0916 13.5676L79.9335 8.65881L76.3671 5.18237L81.2958 4.46619L83.5 0Z" fill="black"/>
</svg>
