<?xml version="1.0" encoding="utf-8"?><svg viewBox="0 0 502.66 502.66" xmlns="http://www.w3.org/2000/svg" xmlns:xlink="http://www.w3.org/1999/xlink"><style>:root>svg{display:none}:root>svg:target{display:block}</style><svg viewBox="0 0 16 16" id="copy" xmlns="http://www.w3.org/2000/svg"><path fill-rule="evenodd" clip-rule="evenodd" d="M7.623 7.206a.416.416 0 00-.416.417v6.087c0 .23.186.417.416.417h6.088c.23 0 .416-.187.416-.417V7.623a.416.416 0 00-.416-.417H7.623zm-2.29.417a2.29 2.29 0 012.29-2.29h6.088A2.29 2.29 0 0116 7.623v6.087A2.29 2.29 0 0113.71 16H7.623a2.29 2.29 0 01-2.29-2.29V7.623z"/><path fill-rule="evenodd" clip-rule="evenodd" d="M2.29 1.873a.416.416 0 00-.417.416v6.088a.416.416 0 00.416.416h.677a.937.937 0 110 1.874h-.677A2.29 2.29 0 010 8.377V2.29A2.29 2.29 0 012.29 0h6.087a2.29 2.29 0 012.29 2.29v.676a.937.937 0 01-1.873 0v-.677a.416.416 0 00-.417-.416H2.29z"/></svg><svg viewBox="0 0 9 18" id="facebook" xmlns="http://www.w3.org/2000/svg"><path d="M8.987 0H5.93C4.116 0 2.098.718 2.098 3.193c.01.862 0 1.688 0 2.617H0v3.143h2.163V18H6.14V8.893h2.624L9 5.801H6.07s.007-1.375 0-1.775c0-.978 1.081-.922 1.146-.922.515 0 1.515.002 1.772 0V0h-.001z"/></svg><svg viewBox="0 0 502.664 502.664" id="icon" xmlns="http://www.w3.org/2000/svg"><path d="M153.821 358.226L0 274.337v-46.463l153.821-83.414v54.574L46.636 250.523l107.185 53.431v54.272zm26.273 29.358L282.103 115.08h32.227L212.084 387.584h-31.99zm168.749-29.358v-54.272l107.164-52.999-107.164-52.59v-53.927l153.821 83.522v46.183l-153.821 84.083z"/></svg><svg viewBox="0 0 21 21" id="insta" xmlns="http://www.w3.org/2000/svg"><path d="M10.5 1.892c2.804 0 3.136.01 4.243.061 1.024.047 1.58.218 1.95.362.49.19.84.418 1.207.785.367.368.595.717.785 1.207.144.37.315.926.362 1.95.05 1.107.061 1.44.061 4.243 0 2.804-.01 3.136-.061 4.243-.047 1.024-.218 1.58-.362 1.95-.19.49-.418.84-.785 1.207a3.254 3.254 0 01-1.207.785c-.37.144-.926.315-1.95.362-1.107.05-1.44.061-4.243.061-2.804 0-3.136-.01-4.243-.061-1.024-.047-1.58-.218-1.95-.362-.49-.19-.84-.418-1.207-.785a3.253 3.253 0 01-.785-1.207c-.144-.37-.315-.926-.362-1.95-.05-1.107-.061-1.44-.061-4.243 0-2.804.01-3.136.061-4.243.047-1.024.218-1.58.362-1.95.19-.49.418-.84.785-1.207a3.253 3.253 0 011.207-.785c.37-.144.926-.315 1.95-.362 1.107-.05 1.44-.061 4.243-.061zM10.5 0C7.648 0 7.29.012 6.17.063 5.054.114 4.29.292 3.623.551a5.147 5.147 0 00-1.86 1.211 5.147 5.147 0 00-1.21 1.86C.291 4.29.113 5.053.062 6.171.012 7.29 0 7.648 0 10.5c0 2.852.012 3.21.063 4.33.051 1.117.229 1.88.488 2.548.269.69.628 1.276 1.211 1.86.584.583 1.17.942 1.86 1.21.668.26 1.431.438 2.549.489 1.12.051 1.477.063 4.329.063 2.852 0 3.21-.012 4.33-.063 1.117-.051 1.88-.229 2.548-.488a5.147 5.147 0 001.86-1.211 5.146 5.146 0 001.21-1.86c.26-.668.438-1.431.489-2.549.05-1.12.063-1.477.063-4.329 0-2.852-.012-3.21-.063-4.33-.051-1.117-.229-1.88-.488-2.548a5.146 5.146 0 00-1.211-1.86 5.147 5.147 0 00-1.86-1.21c-.668-.26-1.431-.438-2.549-.489C13.71.013 13.352 0 10.5 0zm0 5.108a5.392 5.392 0 100 10.784 5.392 5.392 0 000-10.784zm0 8.892a3.5 3.5 0 110-7 3.5 3.5 0 010 7zm6.865-9.105a1.26 1.26 0 11-2.52 0 1.26 1.26 0 012.52 0z"/></svg></svg>