<svg width="24" height="24" viewBox="0 0 24 24" fill="none" xmlns="http://www.w3.org/2000/svg">
<circle cx="12" cy="12" r="12" fill="black"/>
<path d="M18.0484 7.4854C17.9587 7.39495 17.852 7.32316 17.7344 7.27417C17.6168 7.22517 17.4906 7.19995 17.3632 7.19995C17.2358 7.19995 17.1097 7.22517 16.9921 7.27417C16.8745 7.32316 16.7678 7.39495 16.6781 7.4854L9.48871 14.6844L6.46821 11.6543C6.37506 11.5643 6.26511 11.4935 6.14462 11.4461C6.02413 11.3986 5.89547 11.3753 5.76599 11.3775C5.6365 11.3798 5.50872 11.4075 5.38995 11.4591C5.27118 11.5107 5.16374 11.5852 5.07376 11.6784C4.98378 11.7715 4.91303 11.8815 4.86555 12.002C4.81807 12.1225 4.79478 12.2511 4.79702 12.3806C4.79926 12.5101 4.82699 12.6379 4.87861 12.7567C4.93023 12.8754 5.00474 12.9829 5.09788 13.0728L8.80354 16.7785C8.89326 16.869 8.99999 16.9407 9.11758 16.9897C9.23518 17.0387 9.36131 17.064 9.48871 17.064C9.6161 17.064 9.74223 17.0387 9.85983 16.9897C9.97742 16.9407 10.0842 16.869 10.1739 16.7785L18.0484 8.90397C18.1463 8.81361 18.2245 8.70393 18.278 8.58186C18.3315 8.45978 18.3591 8.32796 18.3591 8.19469C18.3591 8.06142 18.3315 7.92959 18.278 7.80752C18.2245 7.68544 18.1463 7.57577 18.0484 7.4854Z" fill="#00CDB3"/>
</svg>
