<svg width="123" height="40" viewBox="0 0 123 40" fill="none" xmlns="http://www.w3.org/2000/svg">
<rect width="40" height="40" rx="20" fill="#00CDB3"/>
<path d="M19.2498 15.7V18.54H23.8298V21.18H19.2498V24.26H24.4298V27H15.8298V12.96H24.4298V15.7H19.2498Z" fill="black"/>
<path d="M47.6765 27V14.76H55.5815V16.681H49.725V19.6985H54.5615V21.6195H49.725V25.079H55.5815V27H47.6765ZM59.8879 27.255C59.2249 27.255 58.6639 27.1303 58.2049 26.881C57.7459 26.626 57.3974 26.2888 57.1594 25.8695C56.927 25.4502 56.8109 24.9883 56.8109 24.484C56.8109 24.042 56.8845 23.6453 57.0319 23.294C57.1792 22.937 57.4059 22.631 57.7119 22.376C58.0179 22.1153 58.4145 21.9028 58.9019 21.7385C59.2702 21.6195 59.7009 21.5118 60.1939 21.4155C60.6925 21.3192 61.2309 21.2313 61.8089 21.152C62.3925 21.067 63.0017 20.9763 63.6364 20.88L62.9054 21.2965C62.911 20.6618 62.7694 20.1943 62.4804 19.894C62.1914 19.5937 61.704 19.4435 61.0184 19.4435C60.6047 19.4435 60.2052 19.5398 59.8199 19.7325C59.4345 19.9252 59.1654 20.2567 59.0124 20.727L57.1424 20.1405C57.369 19.3642 57.7997 18.7408 58.4344 18.2705C59.0747 17.8002 59.936 17.565 61.0184 17.565C61.8344 17.565 62.5512 17.6982 63.1689 17.9645C63.7922 18.2308 64.254 18.6672 64.5544 19.2735C64.7187 19.5965 64.8179 19.928 64.8519 20.268C64.8859 20.6023 64.9029 20.9678 64.9029 21.3645V27H63.1094V25.011L63.4069 25.334C62.9932 25.997 62.5087 26.4843 61.9534 26.796C61.4037 27.102 60.7152 27.255 59.8879 27.255ZM60.2959 25.623C60.7605 25.623 61.1572 25.5408 61.4859 25.3765C61.8145 25.2122 62.0752 25.011 62.2679 24.773C62.4662 24.535 62.5994 24.3112 62.6674 24.1015C62.775 23.8408 62.8345 23.5433 62.8459 23.209C62.8629 22.869 62.8714 22.5942 62.8714 22.3845L63.5004 22.5715C62.8827 22.6678 62.3529 22.7528 61.9109 22.8265C61.4689 22.9002 61.0892 22.971 60.7719 23.039C60.4545 23.1013 60.174 23.1722 59.9304 23.2515C59.6924 23.3365 59.4912 23.4357 59.3269 23.549C59.1625 23.6623 59.035 23.7927 58.9444 23.94C58.8594 24.0873 58.8169 24.2602 58.8169 24.4585C58.8169 24.6852 58.8735 24.8863 58.9869 25.062C59.1002 25.232 59.2645 25.368 59.4799 25.47C59.7009 25.572 59.9729 25.623 60.2959 25.623ZM70.3603 27.255C69.2269 27.255 68.3061 27 67.5978 26.49C66.8894 25.98 66.4588 25.2632 66.3058 24.3395L68.3968 24.0165C68.5044 24.4698 68.7424 24.8268 69.1108 25.0875C69.4791 25.3482 69.9438 25.4785 70.5048 25.4785C70.9978 25.4785 71.3774 25.3822 71.6438 25.1895C71.9158 24.9912 72.0518 24.722 72.0518 24.382C72.0518 24.1723 72.0008 24.0052 71.8988 23.8805C71.8024 23.7502 71.5871 23.6255 71.2528 23.5065C70.9184 23.3875 70.4056 23.2373 69.7143 23.056C68.9436 22.852 68.3316 22.6338 67.8783 22.4015C67.4249 22.1635 67.0991 21.883 66.9008 21.56C66.7024 21.237 66.6033 20.846 66.6033 20.387C66.6033 19.8147 66.7534 19.316 67.0538 18.891C67.3541 18.466 67.7734 18.1402 68.3118 17.9135C68.8501 17.6812 69.4848 17.565 70.2158 17.565C70.9298 17.565 71.5616 17.6755 72.1113 17.8965C72.6666 18.1175 73.1143 18.432 73.4543 18.84C73.7943 19.248 74.0039 19.7268 74.0833 20.2765L71.9923 20.6505C71.9413 20.2595 71.7628 19.9507 71.4568 19.724C71.1564 19.4973 70.7541 19.3698 70.2498 19.3415C69.7681 19.3132 69.3799 19.3868 69.0853 19.5625C68.7906 19.7325 68.6433 19.9733 68.6433 20.285C68.6433 20.4607 68.7028 20.6108 68.8218 20.7355C68.9408 20.8602 69.1788 20.9848 69.5358 21.1095C69.8984 21.2342 70.4368 21.3872 71.1508 21.5685C71.8818 21.7555 72.4654 21.9708 72.9018 22.2145C73.3438 22.4525 73.6611 22.7387 73.8538 23.073C74.0521 23.4073 74.1513 23.8125 74.1513 24.2885C74.1513 25.2122 73.8141 25.9375 73.1398 26.4645C72.4711 26.9915 71.5446 27.255 70.3603 27.255ZM76.588 31.08L78.356 26.2265L78.39 27.6545L74.3865 17.82H76.52L79.359 25.096H78.815L81.5775 17.82H83.626L78.509 31.08H76.588ZM84.7637 27V14.76H86.8122V25.079H92.2182V27H84.7637ZM97.4127 27.255C96.4947 27.255 95.6928 27.0482 95.0072 26.6345C94.3215 26.2208 93.7888 25.6513 93.4092 24.926C93.0352 24.195 92.8482 23.3563 92.8482 22.41C92.8482 21.4467 93.0408 20.6023 93.4262 19.877C93.8115 19.1517 94.347 18.585 95.0327 18.177C95.7183 17.769 96.5117 17.565 97.4127 17.565C98.3363 17.565 99.141 17.7718 99.8267 18.1855C100.512 18.5992 101.045 19.1715 101.425 19.9025C101.804 20.6278 101.994 21.4637 101.994 22.41C101.994 23.362 101.801 24.2035 101.416 24.9345C101.036 25.6598 100.504 26.2293 99.8182 26.643C99.1325 27.051 98.3307 27.255 97.4127 27.255ZM97.4127 25.334C98.2287 25.334 98.835 25.062 99.2317 24.518C99.6283 23.974 99.8267 23.2713 99.8267 22.41C99.8267 21.5203 99.6255 20.812 99.2232 20.285C98.8208 19.7523 98.2173 19.486 97.4127 19.486C96.863 19.486 96.4097 19.6107 96.0527 19.86C95.7013 20.1037 95.4407 20.4465 95.2707 20.8885C95.1007 21.3248 95.0157 21.832 95.0157 22.41C95.0157 23.2997 95.2168 24.0108 95.6192 24.5435C96.0272 25.0705 96.625 25.334 97.4127 25.334ZM106.134 27.255C105.471 27.255 104.91 27.1303 104.451 26.881C103.992 26.626 103.643 26.2888 103.405 25.8695C103.173 25.4502 103.057 24.9883 103.057 24.484C103.057 24.042 103.131 23.6453 103.278 23.294C103.425 22.937 103.652 22.631 103.958 22.376C104.264 22.1153 104.661 21.9028 105.148 21.7385C105.516 21.6195 105.947 21.5118 106.44 21.4155C106.939 21.3192 107.477 21.2313 108.055 21.152C108.639 21.067 109.248 20.9763 109.882 20.88L109.151 21.2965C109.157 20.6618 109.015 20.1943 108.726 19.894C108.437 19.5937 107.95 19.4435 107.264 19.4435C106.851 19.4435 106.451 19.5398 106.066 19.7325C105.681 19.9252 105.411 20.2567 105.258 20.727L103.388 20.1405C103.615 19.3642 104.046 18.7408 104.68 18.2705C105.321 17.8002 106.182 17.565 107.264 17.565C108.08 17.565 108.797 17.6982 109.415 17.9645C110.038 18.2308 110.5 18.6672 110.8 19.2735C110.965 19.5965 111.064 19.928 111.098 20.268C111.132 20.6023 111.149 20.9678 111.149 21.3645V27H109.355V25.011L109.653 25.334C109.239 25.997 108.755 26.4843 108.199 26.796C107.65 27.102 106.961 27.255 106.134 27.255ZM106.542 25.623C107.007 25.623 107.403 25.5408 107.732 25.3765C108.061 25.2122 108.321 25.011 108.514 24.773C108.712 24.535 108.845 24.3112 108.913 24.1015C109.021 23.8408 109.081 23.5433 109.092 23.209C109.109 22.869 109.117 22.5942 109.117 22.3845L109.746 22.5715C109.129 22.6678 108.599 22.7528 108.157 22.8265C107.715 22.9002 107.335 22.971 107.018 23.039C106.701 23.1013 106.42 23.1722 106.176 23.2515C105.938 23.3365 105.737 23.4357 105.573 23.549C105.409 23.6623 105.281 23.7927 105.19 23.94C105.105 24.0873 105.063 24.2602 105.063 24.4585C105.063 24.6852 105.12 24.8863 105.233 25.062C105.346 25.232 105.511 25.368 105.726 25.47C105.947 25.572 106.219 25.623 106.542 25.623ZM119.411 27V22.58C119.411 22.291 119.392 21.9708 119.352 21.6195C119.312 21.2682 119.219 20.931 119.071 20.608C118.93 20.2793 118.714 20.0102 118.425 19.8005C118.142 19.5908 117.757 19.486 117.269 19.486C117.009 19.486 116.751 19.5285 116.496 19.6135C116.241 19.6985 116.009 19.8458 115.799 20.0555C115.595 20.2595 115.431 20.5428 115.306 20.9055C115.181 21.2625 115.119 21.7215 115.119 22.2825L113.903 21.764C113.903 20.982 114.054 20.2737 114.354 19.639C114.66 19.0043 115.108 18.5 115.697 18.126C116.286 17.7463 117.012 17.5565 117.873 17.5565C118.553 17.5565 119.114 17.6698 119.556 17.8965C119.998 18.1232 120.349 18.4122 120.61 18.7635C120.871 19.1148 121.063 19.4888 121.188 19.8855C121.313 20.2822 121.392 20.659 121.426 21.016C121.466 21.3673 121.485 21.6535 121.485 21.8745V27H119.411ZM113.045 27V17.82H114.872V20.6675H115.119V27H113.045Z" fill="black"/>
</svg>
