<?xml version="1.0" encoding="utf-8"?><svg viewBox="0 0 91 40" xmlns="http://www.w3.org/2000/svg" xmlns:xlink="http://www.w3.org/1999/xlink"><style>:root>svg{display:none}:root>svg:target{display:block}</style><svg viewBox="0 0 41 40" id="bulb" xmlns="http://www.w3.org/2000/svg"><path fill-rule="evenodd" clip-rule="evenodd" d="M20.03 0C7.507 0 1.95 16.35 12.55 23.539v1.742c-1.38 1.173-1.538 3.416-.316 4.77-1.9 2.155-.333 5.636 2.567 5.624h.044c1.137 5.769 9.236 5.765 10.37 0h.045c2.901.011 4.466-3.47 2.566-5.624 1.223-1.355 1.064-3.597-.316-4.77v-1.742C38.115 16.347 32.549-.001 20.03 0zm5.23 26.774c1.395.058 1.394 2.045 0 2.103H14.8c-1.394-.058-1.393-2.046 0-2.103h10.46zm-5.23 10.902a2.923 2.923 0 01-2.77-2h5.54a2.923 2.923 0 01-2.77 2zm5.23-4.349H14.8c-1.391-.056-1.396-2.044 0-2.102h10.46c1.392.056 1.397 2.044 0 2.102zm.455-11.418a1.174 1.174 0 00-.552.996v1.52h-1.814v-5.214l2.526-2.488a1.174 1.174 0 10-1.648-1.672l-2.876 2.832c-.224.221-.35.522-.35.837v5.706h-1.95V18.72c0-.312-.124-.61-.344-.83l-2.833-2.833a1.174 1.174 0 00-1.66 1.66l2.49 2.49v5.219h-1.806v-1.521c0-.405-.209-.781-.552-.996C5.062 16.285 9.533 2.36 20.03 2.348c10.498.011 14.97 13.938 5.685 19.561z"/><path d="M35.679 8.652c.165 0 .333-.035.492-.109l2.22-1.027a1.174 1.174 0 00-.986-2.131l-2.22 1.027c-1.14.547-.75 2.229.494 2.24zm.762 2.613h2.45c1.557.062 1.558 2.287 0 2.348h-2.45c-1.556-.061-1.557-2.285 0-2.348zm1.915 6.098l-2.22-1.027c-1.44-.598-2.373 1.422-.986 2.131l2.22 1.027a1.174 1.174 0 10.986-2.131zm-36.69 0l2.22-1.027a1.174 1.174 0 01.986 2.131l-2.22 1.027a1.174 1.174 0 01-.986-2.131zm1.952-3.749c1.558-.063 1.557-2.287 0-2.349h-2.45c-1.558.063-1.557 2.287 0 2.348h2.45zm-.935-8.229l2.22 1.027a1.174 1.174 0 01-.986 2.131l-2.22-1.027a1.174 1.174 0 11.986-2.13z"/></svg><svg viewBox="0 0 40 40" id="lock" xmlns="http://www.w3.org/2000/svg"><path d="M33.17 28.281a3.521 3.521 0 003.314 2.344A3.52 3.52 0 0040 27.109a3.52 3.52 0 00-3.516-3.515c-1.527 0-2.83.98-3.314 2.343h-7.389v-2.343h6.016c.301 0 .591-.117.81-.325l2.437-2.329c.44.199.927.31 1.44.31A3.52 3.52 0 0040 17.734a3.52 3.52 0 00-3.516-3.515 3.52 3.52 0 00-3.515 3.515c0 .57.137 1.109.379 1.585l-2.021 1.931h-5.546v-1.172c0-1.528-.98-2.83-2.343-3.314v-6.217C23.438 4.73 18.706 0 12.89 0 7.075 0 2.344 4.731 2.344 10.547v6.217A3.521 3.521 0 000 20.078v14.063a3.52 3.52 0 003.516 3.515h18.75a3.52 3.52 0 003.515-3.515v-1.172h5.471l1.935 2.295A3.52 3.52 0 0036.484 40 3.52 3.52 0 0040 36.484a3.52 3.52 0 00-3.516-3.515c-.643 0-1.245.174-1.764.477l-2.027-2.404a1.172 1.172 0 00-.896-.417H25.78v-2.344h7.39zm3.314-2.343c.646 0 1.172.525 1.172 1.171s-.526 1.172-1.172 1.172a1.173 1.173 0 01-1.172-1.172c0-.646.526-1.172 1.172-1.172zm0-9.375c.646 0 1.172.525 1.172 1.171s-.526 1.172-1.172 1.172a1.173 1.173 0 01-1.172-1.172c0-.646.526-1.172 1.172-1.172zM4.687 10.546c0-4.523 3.68-8.203 8.204-8.203 4.523 0 8.203 3.68 8.203 8.203v6.015H18.75v-6.015a5.866 5.866 0 00-5.86-5.86 5.866 5.866 0 00-5.859 5.86v6.015H4.688v-6.015zm11.72 0v6.015H9.374v-6.015A3.52 3.52 0 0112.89 7.03a3.52 3.52 0 013.515 3.516zm7.03 23.594c0 .646-.525 1.172-1.171 1.172H3.516a1.173 1.173 0 01-1.172-1.172V20.078c0-.646.525-1.172 1.172-1.172h18.75c.646 0 1.172.526 1.172 1.172v14.063zm13.047 1.172c.646 0 1.172.525 1.172 1.171s-.526 1.172-1.172 1.172a1.173 1.173 0 01-1.172-1.172c0-.646.526-1.172 1.172-1.172z"/></svg><svg viewBox="0 0 41 40" id="pig" xmlns="http://www.w3.org/2000/svg"><path fill-rule="evenodd" clip-rule="evenodd" d="M4.396 8.665a4.373 4.373 0 004.368 4.369 4.373 4.373 0 004.369-4.369c-.24-5.794-8.497-5.795-8.737 0zm2.347 0c0-1.114.907-2.02 2.021-2.02 1.114 0 2.02.906 2.02 2.02-.11 2.68-3.93 2.68-4.04 0z"/><path d="M32.71 21.148a1.174 1.174 0 00-2.347 0c.061 1.557 2.286 1.557 2.348 0zM18.046 16.89h6.044c1.557.061 1.556 2.286 0 2.347h-6.044c-1.558-.062-1.557-2.286 0-2.348z"/><path fill-rule="evenodd" clip-rule="evenodd" d="M4.484 19.877a3.348 3.348 0 00-3.316-2.925c-1.557.061-1.557 2.286 0 2.348.548 0 .994.446.994.994 0 1.065.867 1.931 1.931 1.931h.924c-.982 4.64.76 9.589 4.394 12.629.202.17.318.428.318.705v3.267c0 .648.526 1.174 1.174 1.174h4.608c.648 0 1.174-.526 1.174-1.174V37.9c.4.037.803.055 1.204.055h8.221v.871c0 .648.526 1.174 1.174 1.174h4.686c.649 0 1.174-.526 1.174-1.174v-3.762c1.285-1.02 2.758-2.606 3.57-4.894a4.287 4.287 0 003.387-4.187v-3.129a4.287 4.287 0 00-3.643-4.233c-.766-1.4-1.547-2.505-2.334-3.301l1.862-4.874a1.174 1.174 0 00-1.076-1.593l-3.504-.062a7.184 7.184 0 00-5.866 2.882h-7.65c-.334 0-.673.016-1.015.043C19.053 6.196 14.72-.088 8.766 0-1.802.309-3.043 15.05 7.22 17.19a13.683 13.683 0 00-1.48 2.686H4.484zM2.45 8.665A6.324 6.324 0 018.766 2.35a6.324 6.324 0 016.317 6.316c-.346 8.377-12.286 8.38-12.633 0zm9.627 26.894c0-.97-.42-1.88-1.15-2.498C6.116 29.095 5.85 21.65 10.25 17.2a8.664 8.664 0 005.064-2.868c.85-.202 1.751-.312 2.575-.312h8.273c.41 0 .792-.215 1.004-.566a4.826 4.826 0 014.197-2.316l1.832.032-1.55 4.06a1.174 1.174 0 00.367 1.338c.584.464 1.522 1.485 2.67 3.716.201.391.604.637 1.044.637h.094c1.066 0 1.933.867 1.933 1.932v3.13a1.935 1.935 0 01-1.933 1.932c-.53 0-.996.356-1.134.87-.633 2.357-2.198 3.878-3.4 4.74-.308.22-.49.575-.49.954v3.172h-2.339V34.13c-.061-1.556-2.285-1.557-2.348 0v1.477h-8.22c-.403 0-.805-.023-1.204-.067v-1.41c-.061-1.556-2.286-1.557-2.348 0v3.522h-2.26V35.56z"/></svg><svg viewBox="0 0 41 40" id="rocket" xmlns="http://www.w3.org/2000/svg"><path d="M38.85 8.621c1.188-4.26 1.19-7.326 1.19-7.455A1.17 1.17 0 0038.816.001c-9.605.404-18.718 4.962-24.563 12.625l-6.783-.33a1.174 1.174 0 00-.885.342L.343 18.88a1.171 1.171 0 00.58 1.973l7.23 1.563a84.376 84.376 0 00-1.678 3.315c-.21.447-.118.978.231 1.328l.523.522a4.101 4.101 0 00-1.55.975 4.11 4.11 0 00-.84 1.213L.196 38.21a1.171 1.171 0 001.58 1.597l8.536-4.577a4.133 4.133 0 001.205-.836c.452-.452.777-.983.975-1.55l.588.589c.367.367.932.447 1.384.203.154-.083 1.389-.75 3.131-1.745l1.554 7.188c.183.894 1.332 1.235 1.973.58l6.243-6.243a1.17 1.17 0 00.342-.885l-.33-6.776c1.214-.877 2.268-1.723 3.016-2.47 4.517-4.604 6.898-9.33 8.459-14.664zm-2.278-.55a32.29 32.29 0 01-.976 2.925l-6.584-6.584a30.672 30.672 0 018.615-1.988 31.258 31.258 0 01-1.055 5.647zM3.518 19.018l4.358-4.357 4.753.231a77.618 77.618 0 00-3.305 5.382l-5.806-1.256zm7.17 8.71l-1.735-1.735c.278-.564.71-1.419 1.258-2.45l2.331 2.332-1.854 1.854zm-.828 5.01a1.797 1.797 0 01-.35.272l-.006.003a1.763 1.763 0 01-.184.094 1.192 1.192 0 00-.08.04l-5.085 2.726 2.76-5.017c.018-.031.033-.063.048-.096a1.787 1.787 0 012.897-.547 1.787 1.787 0 010 2.524zm4.255-1.582l-1.77-1.77 1.853-1.855 2.29 2.29c-.988.566-1.817 1.028-2.373 1.335zm11.226.97l-4.357 4.358-1.26-5.827a125.81 125.81 0 005.383-3.339l.234 4.808zm3.395-10.498c-1.985 1.985-6.517 4.836-10.15 6.977l-2.731-2.73 3.848-3.849a1.171 1.171 0 10-1.656-1.656l-3.849 3.849-2.816-2.817.315-.554c2.42-4.227 4.754-7.516 6.748-9.51a30.831 30.831 0 018.264-5.916l7.886 7.886c-1.292 2.693-3.16 5.62-5.86 8.32z"/><path d="M28.658 11.415c-3.055-3.069-8.378-.865-8.36 3.464-.054 2.632 2.265 4.951 4.897 4.897 4.328.018 6.533-5.305 3.463-8.36zm-1.656 5.27c-.951.991-2.662.991-3.613 0-.992-.95-.992-2.662 0-3.613a2.558 2.558 0 013.613 0 2.558 2.558 0 010 3.613z"/></svg><svg viewBox="0 0 91 15" id="stars" xmlns="http://www.w3.org/2000/svg"><path d="M7.5 0l2.204 4.466 4.929.716-3.566 3.477.841 4.909L7.5 11.25l-4.408 2.318.842-4.91L.367 5.183l4.929-.716L7.5 0zm19 0l2.204 4.466 4.929.716-3.567 3.477.842 4.909L26.5 11.25l-4.408 2.318.841-4.91-3.566-3.476 4.929-.716L26.5 0zm19 0l2.204 4.466 4.929.716-3.567 3.477.842 4.909L45.5 11.25l-4.408 2.318.842-4.91-3.567-3.476 4.929-.716L45.5 0zm19 0l2.204 4.466 4.929.716-3.566 3.477.841 4.909L64.5 11.25l-4.408 2.318.842-4.91-3.567-3.476 4.929-.716L64.5 0zm19 0l2.204 4.466 4.929.716-3.566 3.477.841 4.909L83.5 11.25l-4.408 2.318.841-4.91-3.566-3.476 4.929-.716L83.5 0z"/></svg><svg viewBox="0 0 77 17" id="stars-mobile" xmlns="http://www.w3.org/2000/svg"><path d="M8.167.134l2.35 4.764 5.258.764-3.804 3.708.898 5.236-4.702-2.472-4.703 2.472.899-5.236L.558 5.662l5.258-.764L8.166.134z"/><path d="M23.167.134l2.35 4.764 5.258.764-3.804 3.708.898 5.236-4.702-2.472-4.703 2.472.899-5.236-3.805-3.708 5.258-.764 2.35-4.764z"/><path d="M38.167.134l2.35 4.764 5.258.764-3.804 3.708.898 5.236-4.702-2.472-4.703 2.472.898-5.236-3.804-3.708 5.258-.764 2.35-4.764z"/><path d="M53.167.134l2.35 4.764 5.258.764-3.804 3.708.898 5.236-4.702-2.472-4.703 2.472.898-5.236-3.804-3.708 5.258-.764 2.35-4.764z"/><path d="M68.167.134l2.35 4.764 5.258.764-3.804 3.708.898 5.236-4.702-2.472-4.703 2.472.898-5.236-3.804-3.708 5.258-.764 2.35-4.764z"/></svg></svg>